<svg width="94" height="96" viewBox="0 0 94 96" fill="none" xmlns="http://www.w3.org/2000/svg">
<path d="M66.1917 75.5241C64.9775 75.5241 63.7633 75.1661 62.7058 74.451L58.9458 71.948C57.8883 71.2329 57.3792 69.8825 57.7317 68.6509C58.0058 67.7372 58.1233 66.6641 58.1233 65.4722V49.3025C58.1233 42.8267 54.1283 38.7746 47.7441 38.7746H21.1499C20.6799 38.7746 20.2491 38.8144 19.8183 38.8541C18.9958 38.8939 18.2125 38.6157 17.5859 38.0595C16.9592 37.5033 16.6458 36.7088 16.6458 35.8745V24.8694C16.6458 13.1891 24.7141 5.00494 36.2291 5.00494H69.5208C81.0358 5.00494 89.1042 13.1891 89.1042 24.8694V45.131C89.1042 50.8917 87.185 55.977 83.66 59.4731C80.84 62.3734 76.9233 64.241 72.4583 64.7972V69.2067C72.4583 71.5905 71.1658 73.7363 69.1292 74.8487C68.1892 75.2857 67.1708 75.5241 66.1917 75.5241ZM63.8417 68.055L66.3875 69.525C66.6225 69.4058 66.6225 69.2067 66.6225 69.167V61.9761C66.6225 60.3472 67.9542 58.9964 69.56 58.9964C73.6725 58.9964 77.1583 57.6857 79.5475 55.2225C82.015 52.7593 83.2683 49.2628 83.2683 45.0912V24.8297C83.2683 16.3674 77.9025 10.9245 69.56 10.9245H36.2683C27.9258 10.9245 22.5599 16.3674 22.5599 24.8297V32.7755H47.7833C57.34 32.7755 64.0375 39.5692 64.0375 49.2632V65.4325C63.9983 66.3463 63.9591 67.2207 63.8417 68.055Z" fill="#00FFC7"/>
<path d="M23.7742 90.3835C22.9125 90.3835 22.0116 90.1848 21.1891 89.7478C19.3483 88.7546 18.2124 86.8476 18.2124 84.7022V81.6828C14.7658 81.1266 11.7108 79.6567 9.43915 77.3524C6.46248 74.333 4.89581 70.2012 4.89581 65.4337V49.264C4.89581 40.2852 10.6924 33.6903 19.3091 32.856C19.9358 32.8162 20.5233 32.7764 21.1499 32.7764H47.7441C57.3008 32.7764 63.9983 39.5702 63.9983 49.264V65.4337C63.9983 67.1817 63.8025 68.8106 63.3716 70.2806C61.6091 77.4318 55.6166 81.9212 47.7441 81.9212H37.9916L26.9075 89.3903C25.9675 90.0657 24.8709 90.3835 23.7742 90.3835ZM21.1499 38.7358C20.6799 38.7358 20.2491 38.7756 19.8183 38.8153C14.1783 39.3318 10.7708 43.2649 10.7708 49.264V65.4337C10.7708 68.612 11.75 71.2738 13.5908 73.1411C15.3925 74.9686 18.0166 75.9619 21.1499 75.9619C22.7558 75.9619 24.0874 77.3126 24.0874 78.9415V84.146L35.4458 76.4783C35.9158 76.1605 36.5033 75.9619 37.0908 75.9619H47.7441C52.9141 75.9619 56.5566 73.3397 57.6925 68.7312C57.9666 67.738 58.1233 66.6255 58.1233 65.4337V49.264C58.1233 42.7881 54.1283 38.7358 47.7441 38.7358H21.1499Z" fill="#00FFC7"/>
</svg>
