<svg width="66" height="66" viewBox="0 0 66 66" fill="none" xmlns="http://www.w3.org/2000/svg">
<path d="M45.8172 52.2769C44.9768 52.2769 44.1363 52.0292 43.4043 51.5342L40.8017 49.8017C40.0697 49.3067 39.7173 48.3719 39.9613 47.5194C40.1511 46.8869 40.2324 46.1442 40.2324 45.3192V34.1267C40.2324 29.6442 37.4671 26.8394 33.048 26.8394H14.6398C14.3145 26.8394 14.0163 26.8669 13.7181 26.8944C13.1487 26.9219 12.6066 26.7294 12.1728 26.3444C11.739 25.9594 11.5221 25.4094 11.5221 24.8319V17.2144C11.5221 9.12936 17.1069 3.46436 25.0775 3.46436H48.1216C56.0922 3.46436 61.677 9.12936 61.677 17.2144V31.2392C61.677 35.2267 60.3486 38.7467 57.9086 41.1667C55.9566 43.1742 53.2456 44.4669 50.1549 44.8519V47.9042C50.1549 49.5542 49.2603 51.0394 47.8505 51.8094C47.1999 52.1119 46.495 52.2769 45.8172 52.2769ZM44.1906 47.1069L45.9528 48.1244C46.1154 48.0419 46.1154 47.9042 46.1154 47.8767V42.8992C46.1154 41.7717 47.0372 40.8367 48.1487 40.8367C50.9954 40.8367 53.4082 39.9294 55.062 38.2244C56.7699 36.5194 57.6375 34.0992 57.6375 31.2117V17.1868C57.6375 11.3293 53.9233 7.56183 48.1487 7.56183H25.1046C19.33 7.56183 15.6158 11.3293 15.6158 17.1868V22.6868H33.0751C39.6902 22.6868 44.3261 27.3894 44.3261 34.0994V45.2917C44.299 45.9242 44.2719 46.5294 44.1906 47.1069Z" fill="#00FFC7"/>
<path d="M16.4562 62.5625C15.8598 62.5625 15.2362 62.425 14.6669 62.1225C13.3927 61.435 12.6064 60.115 12.6064 58.63V56.54C10.2207 56.155 8.10607 55.1375 6.53364 53.5425C4.47322 51.4525 3.38879 48.5925 3.38879 45.2925V34.1C3.38879 27.885 7.40116 23.3201 13.3655 22.7426C13.7993 22.7151 14.206 22.6875 14.6397 22.6875H33.048C39.663 22.6875 44.2989 27.3901 44.2989 34.1V45.2925C44.2989 46.5025 44.1634 47.63 43.8652 48.6475C42.6452 53.5975 38.4972 56.705 33.048 56.705H26.2974L18.625 61.875C17.9744 62.3425 17.2153 62.5625 16.4562 62.5625ZM14.6397 26.8125C14.3144 26.8125 14.0162 26.8401 13.718 26.8676C9.81404 27.2251 7.45541 29.9475 7.45541 34.1V45.2925C7.45541 47.4925 8.13318 49.335 9.40738 50.6275C10.6545 51.8925 12.4709 52.58 14.6397 52.58C15.7513 52.58 16.673 53.515 16.673 54.6425V58.245L24.5352 52.9375C24.8605 52.7175 25.2672 52.58 25.6738 52.58H33.048C36.6266 52.58 39.1479 50.765 39.9341 47.575C40.1239 46.8875 40.2323 46.1175 40.2323 45.2925V34.1C40.2323 29.6175 37.467 26.8125 33.048 26.8125H14.6397Z" fill="#00FFC7"/>
</svg>
