<svg width="25" height="19" viewBox="0 0 25 19" fill="none" xmlns="http://www.w3.org/2000/svg">
<g clip-path="url(#clip0_72_294)">
<path d="M21.0757 1.70482C19.5311 0.99608 17.8747 0.473908 16.1428 0.174839C16.1113 0.169067 16.0798 0.183491 16.0636 0.21234C15.8505 0.591224 15.6146 1.08551 15.4493 1.47401C13.5866 1.19515 11.7334 1.19515 9.90891 1.47401C9.74363 1.07687 9.4991 0.591224 9.28512 0.21234C9.26887 0.184454 9.23737 0.170029 9.20583 0.174839C7.47493 0.472952 5.81854 0.995124 4.27295 1.70482C4.25957 1.71059 4.2481 1.72022 4.24049 1.73271C1.09867 6.42652 0.23799 11.005 0.660208 15.5266C0.662119 15.5488 0.674537 15.5699 0.691732 15.5834C2.76461 17.1056 4.77256 18.0298 6.74321 18.6424C6.77475 18.652 6.80817 18.6405 6.82824 18.6145C7.29439 17.9779 7.70993 17.3067 8.06622 16.6008C8.08724 16.5594 8.06717 16.5104 8.0242 16.494C7.36509 16.244 6.73748 15.9392 6.13376 15.593C6.08601 15.5651 6.08218 15.4968 6.12611 15.4641C6.25316 15.3689 6.38024 15.2699 6.50155 15.1698C6.52349 15.1516 6.55408 15.1477 6.57988 15.1593C10.546 16.9701 14.8399 16.9701 18.7592 15.1593C18.785 15.1468 18.8156 15.1506 18.8385 15.1689C18.9599 15.2689 19.0869 15.3689 19.2149 15.4641C19.2588 15.4968 19.256 15.5651 19.2082 15.593C18.6045 15.9459 17.9769 16.244 17.3168 16.4931C17.2739 16.5094 17.2547 16.5594 17.2758 16.6008C17.6397 17.3057 18.0552 17.9769 18.5128 18.6135C18.5319 18.6405 18.5663 18.652 18.5978 18.6424C20.578 18.0298 22.586 17.1056 24.6588 15.5834C24.677 15.5699 24.6885 15.5497 24.6904 15.5276C25.1957 10.3 23.844 5.75915 21.1072 1.73367C21.1005 1.72022 21.0891 1.71059 21.0757 1.70482ZM8.6585 12.7734C7.46441 12.7734 6.48052 11.6772 6.48052 10.3308C6.48052 8.98451 7.44533 7.88825 8.6585 7.88825C9.88119 7.88825 10.8556 8.99413 10.8364 10.3308C10.8364 11.6772 9.87163 12.7734 8.6585 12.7734ZM16.7112 12.7734C15.5171 12.7734 14.5333 11.6772 14.5333 10.3308C14.5333 8.98451 15.498 7.88825 16.7112 7.88825C17.9339 7.88825 18.9083 8.99413 18.8892 10.3308C18.8892 11.6772 17.9339 12.7734 16.7112 12.7734Z" fill="#00FFC7"/>
</g>
<defs>
<clipPath id="clip0_72_294">
<rect width="24.2347" height="18.7733" fill="white" transform="translate(0.560059 0.0332031)"/>
</clipPath>
</defs>
</svg>
