<svg width="42" height="32" viewBox="0 0 42 32" fill="none" xmlns="http://www.w3.org/2000/svg">
<g clip-path="url(#clip0_18_18)">
<path d="M34.9699 2.84957C32.337 1.64148 29.5136 0.751418 26.5616 0.24164C26.5078 0.231802 26.4541 0.256389 26.4264 0.305564C26.0633 0.951389 25.6611 1.79392 25.3794 2.45615C22.2043 1.9808 19.0455 1.9808 15.9355 2.45615C15.6538 1.7792 15.237 0.951389 14.8723 0.305564C14.8446 0.25803 14.7909 0.233443 14.7371 0.24164C11.7867 0.749789 8.96332 1.63985 6.32879 2.84957C6.30598 2.8594 6.28643 2.87581 6.27346 2.89711C0.91808 10.8979 -0.548981 18.7021 0.17071 26.4095C0.173966 26.4472 0.195134 26.4833 0.224443 26.5062C3.75777 29.101 7.18039 30.6763 10.5395 31.7204C10.5932 31.7368 10.6502 31.7171 10.6844 31.6728C11.479 30.5878 12.1873 29.4436 12.7946 28.2404C12.8304 28.17 12.7962 28.0863 12.723 28.0585C11.5995 27.6323 10.5297 27.1127 9.50063 26.5226C9.41923 26.4751 9.41271 26.3586 9.48759 26.3029C9.70415 26.1406 9.92076 25.9718 10.1275 25.8013C10.1649 25.7702 10.2171 25.7636 10.2611 25.7833C17.0216 28.8699 24.3406 28.8699 31.0213 25.7833C31.0653 25.762 31.1174 25.7686 31.1565 25.7997C31.3633 25.9702 31.5799 26.1406 31.7981 26.3029C31.8729 26.3586 31.868 26.4751 31.7866 26.5226C30.7576 27.1241 29.6878 27.6323 28.5627 28.0568C28.4894 28.0847 28.4568 28.17 28.4927 28.2404C29.113 29.4419 29.8213 30.5861 30.6013 31.6712C30.6338 31.7171 30.6924 31.7368 30.7462 31.7204C34.1215 30.6763 37.5441 29.101 41.0775 26.5062C41.1084 26.4833 41.128 26.4488 41.1312 26.4111C41.9926 17.5005 39.6886 9.76035 35.0236 2.89873C35.0122 2.87581 34.9927 2.8594 34.9699 2.84957ZM13.8042 21.7165C11.7688 21.7165 10.0917 19.8479 10.0917 17.553C10.0917 15.2581 11.7363 13.3895 13.8042 13.3895C15.8883 13.3895 17.5492 15.2745 17.5166 17.553C17.5166 19.8479 15.872 21.7165 13.8042 21.7165ZM27.5304 21.7165C25.495 21.7165 23.818 19.8479 23.818 17.553C23.818 15.2581 25.4625 13.3895 27.5304 13.3895C29.6145 13.3895 31.2753 15.2745 31.2428 17.553C31.2428 19.8479 29.6145 21.7165 27.5304 21.7165Z" fill="#00FFC7"/>
</g>
<defs>
<clipPath id="clip0_18_18">
<rect width="41.3091" height="32" fill="white"/>
</clipPath>
</defs>
</svg>
