<svg width="94" height="94" viewBox="0 0 94 94" fill="none" xmlns="http://www.w3.org/2000/svg">
<path d="M66.0339 41.6733C65.2897 41.6733 64.5456 41.3992 63.9581 40.8117L52.0518 28.9052C50.916 27.7693 50.916 25.8893 52.0518 24.7535C53.1876 23.6177 55.0676 23.6177 56.2035 24.7535L68.1101 36.6601C69.246 37.7959 69.246 39.6758 68.1101 40.8117C67.5226 41.36 66.7781 41.6733 66.0339 41.6733Z" fill="#00FFC7"/>
<path d="M54.1295 70.1075C52.5237 70.1075 51.192 68.7759 51.192 67.17V26.7894C51.192 25.1835 52.5237 23.8519 54.1295 23.8519C55.7354 23.8519 57.067 25.1835 57.067 26.7894V67.17C57.067 68.815 55.7354 70.1075 54.1295 70.1075Z" fill="#00FFC7"/>
<path d="M39.8721 70.1076C39.1278 70.1076 38.3837 69.8334 37.7962 69.2459L25.8895 57.3392C24.7536 56.2034 24.7536 54.3234 25.8895 53.1876C27.0253 52.0517 28.9054 52.0517 30.0413 53.1876L41.9479 65.0942C43.0837 66.2301 43.0837 68.1101 41.9479 69.2459C41.3995 69.8334 40.6554 70.1076 39.8721 70.1076Z" fill="#00FFC7"/>
<path d="M39.8705 70.1075C38.2646 70.1075 36.933 68.7759 36.933 67.17V26.7894C36.933 25.1835 38.2646 23.8519 39.8705 23.8519C41.4763 23.8519 42.808 25.1835 42.808 26.7894V67.17C42.808 68.815 41.5155 70.1075 39.8705 70.1075Z" fill="#00FFC7"/>
<path d="M47 89.1041C23.7741 89.1041 4.89581 70.2258 4.89581 47C4.89581 23.7741 23.7741 4.89581 47 4.89581C70.2258 4.89581 89.1041 23.7741 89.1041 47C89.1041 70.2258 70.2258 89.1041 47 89.1041ZM47 10.7708C27.025 10.7708 10.7708 27.025 10.7708 47C10.7708 66.975 27.025 83.2291 47 83.2291C66.975 83.2291 83.2291 66.975 83.2291 47C83.2291 27.025 66.975 10.7708 47 10.7708Z" fill="#00FFC7"/>
</svg>
