<svg width="20" height="22" viewBox="0 0 20 22" fill="none" xmlns="http://www.w3.org/2000/svg">
<g clip-path="url(#clip0_72_297)">
<path d="M10.1588 6.67608C7.53534 6.67608 5.41921 8.7922 5.41921 11.4157C5.41921 14.0392 7.53534 16.1553 10.1588 16.1553C12.7823 16.1553 14.8985 14.0392 14.8985 11.4157C14.8985 8.7922 12.7823 6.67608 10.1588 6.67608ZM10.1588 14.4971C8.46346 14.4971 7.07746 13.1152 7.07746 11.4157C7.07746 9.7162 8.45933 8.33433 10.1588 8.33433C11.8583 8.33433 13.2402 9.7162 13.2402 11.4157C13.2402 13.1152 11.8542 14.4971 10.1588 14.4971ZM16.1978 6.4822C16.1978 7.09683 15.7028 7.5877 15.0923 7.5877C14.4777 7.5877 13.9868 7.0927 13.9868 6.4822C13.9868 5.8717 14.4818 5.3767 15.0923 5.3767C15.7028 5.3767 16.1978 5.8717 16.1978 6.4822ZM19.337 7.6042C19.2668 6.12333 18.9286 4.81158 17.8437 3.73083C16.763 2.65008 15.4512 2.31183 13.9703 2.23758C12.4441 2.15095 7.86946 2.15095 6.34321 2.23758C4.86646 2.3077 3.55471 2.64595 2.46984 3.7267C1.38496 4.80745 1.05084 6.1192 0.97659 7.60008C0.889965 9.12633 0.889965 13.701 0.97659 15.2272C1.04671 16.7081 1.38496 18.0198 2.46984 19.1006C3.55471 20.1813 4.86234 20.5196 6.34321 20.5938C7.86946 20.6805 12.4441 20.6805 13.9703 20.5938C15.4512 20.5237 16.763 20.1855 17.8437 19.1006C18.9245 18.0198 19.2627 16.7081 19.337 15.2272C19.4236 13.701 19.4236 9.13045 19.337 7.6042ZM17.3652 16.8648C17.0435 17.6733 16.4206 18.2962 15.608 18.6221C14.3911 19.1047 11.5036 18.9933 10.1588 18.9933C8.81408 18.9933 5.92246 19.1006 4.70971 18.6221C3.90121 18.3003 3.27834 17.6775 2.95246 16.8648C2.46984 15.648 2.58121 12.7605 2.58121 11.4157C2.58121 10.071 2.47396 7.17933 2.95246 5.96658C3.27421 5.15808 3.89709 4.5352 4.70971 4.20933C5.92659 3.7267 8.81408 3.83808 10.1588 3.83808C11.5036 3.83808 14.3952 3.73083 15.608 4.20933C16.4165 4.53108 17.0393 5.15395 17.3652 5.96658C17.8478 7.18345 17.7365 10.071 17.7365 11.4157C17.7365 12.7605 17.8478 15.6521 17.3652 16.8648Z" fill="#00FFC7"/>
</g>
<defs>
<clipPath id="clip0_72_297">
<rect width="18.48" height="21.12" fill="white" transform="translate(0.914673 0.859863)"/>
</clipPath>
</defs>
</svg>
