<svg width="32" height="36" viewBox="0 0 32 36" fill="none" xmlns="http://www.w3.org/2000/svg">
<g clip-path="url(#clip0_3_343)">
<path d="M16.0661 9.91416C11.5942 9.91416 7.98721 13.5212 7.98721 17.9931C7.98721 22.4649 11.5942 26.072 16.0661 26.072C20.538 26.072 24.145 22.4649 24.145 17.9931C24.145 13.5212 20.538 9.91416 16.0661 9.91416ZM16.0661 23.2454C13.1763 23.2454 10.8138 20.8899 10.8138 17.9931C10.8138 15.0962 13.1692 12.7407 16.0661 12.7407C18.963 12.7407 21.3185 15.0962 21.3185 17.9931C21.3185 20.8899 18.956 23.2454 16.0661 23.2454ZM26.3599 9.58369C26.3599 10.6313 25.5161 11.4681 24.4755 11.4681C23.4278 11.4681 22.5911 10.6243 22.5911 9.58369C22.5911 8.54307 23.4349 7.69932 24.4755 7.69932C25.5161 7.69932 26.3599 8.54307 26.3599 9.58369ZM31.7106 11.4962C31.5911 8.97197 31.0145 6.73603 29.1653 4.89385C27.3231 3.05166 25.0872 2.4751 22.563 2.34854C19.9614 2.20088 12.1638 2.20088 9.56221 2.34854C7.04503 2.46807 4.80909 3.04463 2.95987 4.88682C1.11066 6.729 0.541125 8.96494 0.414563 11.4892C0.266907 14.0907 0.266907 21.8884 0.414563 24.4899C0.534094 27.0142 1.11066 29.2501 2.95987 31.0923C4.80909 32.9345 7.038 33.511 9.56221 33.6376C12.1638 33.7853 19.9614 33.7853 22.563 33.6376C25.0872 33.5181 27.3231 32.9415 29.1653 31.0923C31.0075 29.2501 31.5841 27.0142 31.7106 24.4899C31.8583 21.8884 31.8583 14.0978 31.7106 11.4962ZM28.3497 27.2813C27.8013 28.6595 26.7395 29.7212 25.3544 30.2767C23.2802 31.0993 18.3583 30.9095 16.0661 30.9095C13.7739 30.9095 8.84503 31.0923 6.77784 30.2767C5.39971 29.7282 4.338 28.6665 3.78253 27.2813C2.95987 25.2071 3.14972 20.2853 3.14972 17.9931C3.14972 15.7009 2.9669 10.772 3.78253 8.70478C4.33097 7.32666 5.39268 6.26494 6.77784 5.70947C8.85206 4.88682 13.7739 5.07666 16.0661 5.07666C18.3583 5.07666 23.2872 4.89385 25.3544 5.70947C26.7325 6.25791 27.7942 7.31963 28.3497 8.70478C29.1724 10.779 28.9825 15.7009 28.9825 17.9931C28.9825 20.2853 29.1724 25.2142 28.3497 27.2813Z" fill="#00FFC7"/>
</g>
<defs>
<clipPath id="clip0_3_343">
<rect width="31.5" height="36" fill="white" transform="translate(0.309097)"/>
</clipPath>
</defs>
</svg>
