<svg width="22" height="22" viewBox="0 0 22 22" fill="none" xmlns="http://www.w3.org/2000/svg">
<g clip-path="url(#clip0_72_299)">
<path d="M21.2 11.4204C21.2 17.2521 16.4718 21.9804 10.64 21.9804C4.80816 21.9804 0.0799561 17.2521 0.0799561 11.4204C0.0799561 5.58856 4.80816 0.860352 10.64 0.860352C16.473 0.860352 21.2 5.58856 21.2 11.4204Z" fill="#00FFC7"/>
<path d="M5.28987 11.7749L5.33542 11.7033L8.0825 7.40581C8.12265 7.34288 8.21703 7.3494 8.24742 7.41774C8.70634 8.44628 9.10236 9.72542 8.91683 10.5218C8.83763 10.8494 8.62064 11.2932 8.37651 11.7033C8.34507 11.7629 8.31034 11.8215 8.27345 11.878C8.25611 11.904 8.2268 11.9192 8.19533 11.9192H5.37015C5.29419 11.9192 5.24972 11.8367 5.28987 11.7749Z" fill="#045383"/>
<path d="M17.5346 12.5733V13.2536C17.5346 13.2926 17.5107 13.3274 17.476 13.3426C17.2633 13.4337 16.5353 13.7679 16.2326 14.1888C15.4602 15.264 14.8699 16.8014 13.5507 16.8014H8.04673C6.09602 16.8014 4.51526 15.2152 4.51526 13.2579V13.195C4.51526 13.1429 4.55757 13.1006 4.60964 13.1006H7.67786C7.73862 13.1006 7.78311 13.157 7.77769 13.2167C7.75598 13.4163 7.79287 13.6203 7.88725 13.8058C8.06952 14.1758 8.4471 14.4069 8.85502 14.4069H10.3739V13.2211H8.87239C8.79534 13.2211 8.7498 13.1321 8.79426 13.0692C8.81055 13.0442 8.829 13.0182 8.84852 12.9889C8.99063 12.7871 9.19353 12.4735 9.39532 12.1166C9.53311 11.8757 9.66657 11.6186 9.77397 11.3604C9.79568 11.3137 9.81302 11.266 9.83039 11.2193C9.85968 11.1369 9.89006 11.0598 9.91175 10.9828C9.93345 10.9177 9.95082 10.8494 9.96819 10.7854C10.0192 10.5662 10.0409 10.334 10.0409 10.0932C10.0409 9.99877 10.0365 9.90005 10.0278 9.80564C10.0235 9.70258 10.0105 9.59951 9.99747 9.49645C9.98879 9.4053 9.97253 9.31526 9.95516 9.22088C9.93345 9.08308 9.90309 8.94639 9.86836 8.80859L9.85644 8.75652C9.83039 8.66214 9.80868 8.57207 9.77832 8.47769C9.69259 8.18149 9.59387 7.8929 9.48972 7.62275C9.45175 7.51534 9.40834 7.41228 9.36495 7.30921C9.30093 7.15405 9.23584 7.01301 9.17616 6.87956C9.1458 6.8188 9.11975 6.76347 9.09372 6.70706C9.06441 6.64304 9.03405 6.57905 9.00366 6.51827C8.98197 6.47162 8.95701 6.42823 8.93964 6.38484L8.75414 6.04199C8.72809 5.99534 8.77148 5.94 8.82247 5.9541L9.98337 6.26875H9.98663C9.98879 6.26875 9.98987 6.26983 9.99097 6.26983L10.1439 6.31214L10.3121 6.35987L10.3739 6.37723V5.68722C10.3739 5.35413 10.6408 5.08398 10.9707 5.08398C11.1356 5.08398 11.2853 5.15124 11.3927 5.26083C11.5001 5.37042 11.5674 5.52014 11.5674 5.68722V6.7114L11.6911 6.7461C11.7008 6.74937 11.7106 6.75371 11.7193 6.76021C11.7497 6.78299 11.793 6.81665 11.8484 6.85785C11.8918 6.89258 11.9384 6.93489 11.9949 6.97828C12.1066 7.06835 12.24 7.18444 12.3865 7.31787C12.4256 7.35152 12.4635 7.38623 12.4983 7.42096C12.687 7.5967 12.8986 7.80286 13.1004 8.03069C13.1568 8.09469 13.2121 8.15978 13.2686 8.22814C13.325 8.29758 13.3847 8.36594 13.4367 8.4343C13.5051 8.52542 13.5789 8.6198 13.6429 8.71855C13.6732 8.7652 13.708 8.81293 13.7373 8.85958C13.8197 8.98436 13.8924 9.11347 13.9619 9.24256C13.9911 9.30223 14.0215 9.36733 14.0476 9.43135C14.1246 9.60385 14.1854 9.77962 14.2244 9.95538C14.2363 9.99335 14.245 10.0346 14.2493 10.0715V10.0801C14.2624 10.1322 14.2667 10.1876 14.2711 10.244C14.2884 10.4241 14.2797 10.6042 14.2407 10.7854C14.2244 10.8624 14.2027 10.9351 14.1767 11.0121C14.1506 11.0859 14.1246 11.1629 14.091 11.2356C14.0259 11.3864 13.9488 11.5372 13.8577 11.6783C13.8284 11.7303 13.7937 11.7857 13.759 11.8377C13.721 11.8931 13.6819 11.9452 13.6472 11.9962C13.5995 12.0613 13.5485 12.1296 13.4964 12.1903C13.4497 12.2544 13.402 12.3184 13.3499 12.3748C13.2772 12.4605 13.2078 12.5419 13.1351 12.62C13.0917 12.671 13.0451 12.7231 12.9973 12.7697C12.9507 12.8218 12.9029 12.8684 12.8595 12.9118C12.7869 12.9845 12.7261 13.0409 12.6751 13.0876L12.5558 13.1972C12.5384 13.2124 12.5156 13.2211 12.4917 13.2211H11.5674V14.4069H12.7304C12.9908 14.4069 13.2382 14.3147 13.4378 14.1454C13.5062 14.0858 13.8045 13.8275 14.1571 13.438C14.1691 13.425 14.1843 13.4153 14.2016 13.4109L17.4141 12.4822C17.4738 12.4648 17.5346 12.5104 17.5346 12.5733Z" fill="#045181"/>
</g>
<defs>
<clipPath id="clip0_72_299">
<rect width="21.12" height="21.12" fill="white" transform="translate(0.0799561 0.860352)"/>
</clipPath>
</defs>
</svg>
