<svg width="36" height="36" viewBox="0 0 36 36" fill="none" xmlns="http://www.w3.org/2000/svg">
<g clip-path="url(#clip0_72_364)">
<path d="M36 18C36 27.9406 27.9406 36 18 36C8.05944 36 0 27.9406 0 18C0 8.05949 8.05944 4.673e-05 18 4.673e-05C27.9426 4.673e-05 36 8.05949 36 18Z" fill="#00FFC7"/>
<path d="M8.88046 18.6048L8.9581 18.4828L13.6406 11.1576C13.7091 11.0503 13.8699 11.0614 13.9217 11.1779C14.704 12.9311 15.379 15.1115 15.0628 16.4689C14.9278 17.0274 14.5579 17.7838 14.1418 18.4828C14.0882 18.5845 14.029 18.6844 13.9661 18.7806C13.9365 18.8249 13.8866 18.8508 13.8329 18.8508H9.0173C8.88782 18.8508 8.81202 18.7103 8.88046 18.6048Z" fill="#045383"/>
<path d="M29.7521 19.966V21.1255C29.7521 21.1921 29.7114 21.2513 29.6522 21.2772C29.2897 21.4325 28.0488 22.0021 27.5329 22.7196C26.2161 24.5523 25.2101 27.1728 22.9613 27.1728H13.5796C10.2545 27.1728 7.56006 24.4691 7.56006 21.1329V21.0256C7.56006 20.9369 7.63218 20.8648 7.72094 20.8648H12.9509C13.0544 20.8648 13.1303 20.9609 13.121 21.0626C13.084 21.4029 13.1469 21.7506 13.3078 22.0668C13.6185 22.6974 14.2621 23.0914 14.9574 23.0914H17.5465V21.07H14.987C14.8557 21.07 14.778 20.9184 14.8538 20.8111C14.8816 20.7686 14.913 20.7242 14.9463 20.6743C15.1885 20.3303 15.5344 19.7958 15.8783 19.1874C16.1132 18.7769 16.3407 18.3386 16.5238 17.8984C16.5608 17.8189 16.5903 17.7376 16.6199 17.658C16.6699 17.5175 16.7217 17.3862 16.7586 17.2549C16.7956 17.1439 16.8252 17.0274 16.8548 16.9183C16.9417 16.5447 16.9787 16.149 16.9787 15.7384C16.9787 15.5775 16.9713 15.4092 16.9565 15.2483C16.9491 15.0726 16.9269 14.897 16.9047 14.7213C16.8899 14.5659 16.8622 14.4124 16.8326 14.2516C16.7956 14.0167 16.7439 13.7837 16.6847 13.5488L16.6643 13.46C16.6199 13.2992 16.5829 13.1456 16.5312 12.9848C16.3851 12.4799 16.2168 11.988 16.0393 11.5275C15.9745 11.3444 15.9005 11.1687 15.8266 10.993C15.7175 10.7286 15.6065 10.4882 15.5048 10.2607C15.453 10.1571 15.4086 10.0628 15.3643 9.96665C15.3143 9.85753 15.2625 9.74845 15.2107 9.64485C15.1738 9.56533 15.1312 9.49137 15.1016 9.41741L14.7854 8.83301C14.741 8.75349 14.815 8.65917 14.9019 8.68321L16.8807 9.21953H16.8863C16.8899 9.21953 16.8918 9.22137 16.8937 9.22137L17.1544 9.29349L17.4411 9.37485L17.5465 9.40445V8.22829C17.5465 7.66053 18.0014 7.20005 18.5636 7.20005C18.8447 7.20005 19.0999 7.31469 19.283 7.50149C19.4661 7.68829 19.5807 7.94349 19.5807 8.22829V9.97405L19.7915 10.0332C19.8082 10.0388 19.8248 10.0462 19.8396 10.0572C19.8914 10.0961 19.9654 10.1534 20.0597 10.2237C20.1337 10.2829 20.2132 10.355 20.3094 10.429C20.4999 10.5825 20.7273 10.7804 20.977 11.0078C21.0435 11.0652 21.1083 11.1243 21.1675 11.1835C21.4892 11.4831 21.8499 11.8345 22.1938 12.2228C22.29 12.3319 22.3843 12.4429 22.4805 12.5594C22.5767 12.6778 22.6783 12.7943 22.7671 12.9108C22.8836 13.0661 23.0094 13.227 23.1185 13.3953C23.1703 13.4748 23.2295 13.5562 23.2794 13.6357C23.4199 13.8484 23.5439 14.0685 23.6622 14.2885C23.7121 14.3902 23.7639 14.5012 23.8083 14.6103C23.9396 14.9044 24.0432 15.204 24.1097 15.5036C24.1301 15.5683 24.1449 15.6386 24.1523 15.7014V15.7162C24.1745 15.805 24.1819 15.8993 24.1893 15.9955C24.2189 16.3024 24.2041 16.6094 24.1375 16.9183C24.1097 17.0496 24.0727 17.1735 24.0284 17.3048C23.984 17.4306 23.9396 17.5618 23.8823 17.6858C23.7713 17.9428 23.64 18.1999 23.4847 18.4403C23.4347 18.529 23.3755 18.6234 23.3164 18.7121C23.2517 18.8064 23.1851 18.8952 23.1259 18.9822C23.0445 19.0931 22.9576 19.2096 22.8688 19.3132C22.7893 19.4223 22.7079 19.5314 22.6192 19.6276C22.4953 19.7736 22.3769 19.9124 22.253 20.0455C22.179 20.1324 22.0995 20.2212 22.0181 20.3007C21.9386 20.3895 21.8573 20.469 21.7833 20.543C21.6594 20.6669 21.5558 20.763 21.4689 20.8426L21.2655 21.0294C21.2359 21.0552 21.197 21.07 21.1563 21.07H19.5807V23.0914H21.5632C22.0071 23.0914 22.4287 22.9342 22.769 22.6457C22.8855 22.544 23.3941 22.1038 23.9951 21.4399C24.0154 21.4177 24.0413 21.4011 24.0709 21.3937L29.5468 19.8106C29.6485 19.781 29.7521 19.8587 29.7521 19.966Z" fill="#045181"/>
</g>
<defs>
<clipPath id="clip0_72_364">
<rect width="36" height="36" fill="white"/>
</clipPath>
</defs>
</svg>
