<svg width="36" height="36" viewBox="0 0 36 36" fill="none" xmlns="http://www.w3.org/2000/svg">
<path d="M36 18C36 27.9406 27.9406 36 18 36C8.05944 36 0 27.9406 0 18C0 8.05944 8.05944 0 18 0C27.9426 0 36 8.05944 36 18Z" fill="#00FFC7"/>
<path d="M8.88043 18.6049L8.95807 18.4829L13.6406 11.1577C13.709 11.0504 13.8699 11.0615 13.9217 11.178C14.7039 12.9312 15.379 15.1115 15.0627 16.4689C14.9277 17.0274 14.5579 17.7838 14.1418 18.4829C14.0882 18.5846 14.0289 18.6845 13.9661 18.7806C13.9365 18.825 13.8865 18.8509 13.8329 18.8509H9.01727C8.88779 18.8509 8.81199 18.7103 8.88043 18.6049Z" fill="#045383"/>
<path d="M29.752 19.9659V21.1254C29.752 21.192 29.7113 21.2512 29.6521 21.2771C29.2897 21.4324 28.0488 22.002 27.5328 22.7196C26.2161 24.5522 25.21 27.1728 22.9612 27.1728H13.5796C10.2545 27.1728 7.56 24.469 7.56 21.1328V21.0256C7.56 20.9368 7.63212 20.8647 7.72088 20.8647H12.9508C13.0544 20.8647 13.1302 20.9608 13.121 21.0626C13.084 21.4028 13.1468 21.7505 13.3077 22.0668C13.6184 22.6974 14.262 23.0913 14.9573 23.0913H17.5464V21.07H14.9869C14.8556 21.07 14.778 20.9183 14.8538 20.811C14.8815 20.7685 14.913 20.7241 14.9462 20.6742C15.1885 20.3302 15.5343 19.7958 15.8783 19.1873C16.1132 18.7768 16.3406 18.3385 16.5237 17.8984C16.5607 17.8188 16.5903 17.7375 16.6199 17.6579C16.6698 17.5174 16.7216 17.3861 16.7586 17.2548C16.7956 17.1438 16.8252 17.0273 16.8548 16.9182C16.9417 16.5446 16.9786 16.1489 16.9786 15.7383C16.9786 15.5774 16.9712 15.4092 16.9564 15.2482C16.9491 15.0726 16.9269 14.8969 16.9047 14.7212C16.8899 14.5658 16.8622 14.4124 16.8326 14.2515C16.7956 14.0166 16.7438 13.7836 16.6846 13.5487L16.6643 13.46C16.6199 13.2991 16.5829 13.1456 16.5311 12.9847C16.385 12.4798 16.2167 11.9879 16.0392 11.5274C15.9745 11.3443 15.9005 11.1686 15.8265 10.993C15.7174 10.7285 15.6064 10.4881 15.5047 10.2606C15.453 10.157 15.4086 10.0627 15.3642 9.96655C15.3142 9.85743 15.2625 9.74835 15.2107 9.64475C15.1737 9.56523 15.1312 9.49127 15.1016 9.41731L14.7854 8.83291C14.741 8.75339 14.8149 8.65907 14.9018 8.68311L16.8806 9.21943H16.8862C16.8899 9.21943 16.8917 9.22127 16.8936 9.22127L17.1543 9.29339L17.441 9.37475L17.5464 9.40435V8.22819C17.5464 7.66043 18.0013 7.19995 18.5635 7.19995C18.8446 7.19995 19.0998 7.31459 19.2829 7.50139C19.466 7.68819 19.5807 7.94339 19.5807 8.22819V9.97395L19.7915 10.0331C19.8081 10.0387 19.8248 10.0461 19.8396 10.0572C19.8914 10.096 19.9653 10.1534 20.0596 10.2236C20.1336 10.2828 20.2131 10.3549 20.3093 10.4289C20.4998 10.5824 20.7272 10.7803 20.9769 11.0077C21.0435 11.0651 21.1082 11.1242 21.1674 11.1834C21.4892 11.483 21.8498 11.8344 22.1938 12.2228C22.2899 12.3318 22.3842 12.4428 22.4804 12.5593C22.5766 12.6777 22.6783 12.7942 22.7671 12.9107C22.8836 13.066 23.0093 13.2269 23.1184 13.3952C23.1702 13.4748 23.2294 13.5561 23.2793 13.6356C23.4199 13.8483 23.5438 14.0684 23.6622 14.2884C23.7121 14.3902 23.7638 14.5011 23.8082 14.6102C23.9395 14.9043 24.0431 15.2039 24.1097 15.5035C24.13 15.5682 24.1448 15.6385 24.1522 15.7014V15.7161C24.1744 15.8049 24.1818 15.8992 24.1892 15.9954C24.2188 16.3024 24.204 16.6094 24.1374 16.9182C24.1097 17.0495 24.0727 17.1734 24.0283 17.3047C23.9839 17.4305 23.9395 17.5618 23.8822 17.6857C23.7712 17.9427 23.64 18.1998 23.4846 18.4402C23.4347 18.529 23.3755 18.6233 23.3163 18.712C23.2516 18.8064 23.185 18.8952 23.1258 18.9821C23.0445 19.093 22.9576 19.2095 22.8688 19.3131C22.7892 19.4222 22.7079 19.5313 22.6191 19.6275C22.4952 19.7736 22.3768 19.9123 22.253 20.0454C22.179 20.1324 22.0994 20.2211 22.0181 20.3006C21.9386 20.3894 21.8572 20.4689 21.7832 20.5429C21.6593 20.6668 21.5558 20.763 21.4688 20.8425L21.2654 21.0293C21.2358 21.0552 21.197 21.07 21.1563 21.07H19.5807V23.0913H21.5632C22.007 23.0913 22.4286 22.9341 22.7689 22.6456C22.8854 22.5439 23.394 22.1037 23.995 21.4398C24.0154 21.4176 24.0412 21.401 24.0708 21.3936L29.5467 19.8106C29.6484 19.781 29.752 19.8586 29.752 19.9659Z" fill="#045181"/>
</svg>
