<svg width="94" height="94" viewBox="0 0 94 94" fill="none" xmlns="http://www.w3.org/2000/svg">
<path d="M47.0015 89.1429C42.7324 89.1429 38.5023 87.8896 35.1732 85.4221L18.3315 72.8496C13.8665 69.5204 10.3807 62.5488 10.3807 57.0263V27.8864C10.3807 21.8548 14.8065 15.4314 20.4857 13.3164L40.0299 5.99227C43.9074 4.5431 50.0174 4.5431 53.8949 5.99227L73.439 13.3164C79.1182 15.4314 83.544 21.8548 83.544 27.8864V56.9871C83.544 62.5488 80.0582 69.4813 75.5932 72.8104L58.7515 85.3829C55.5007 87.8896 51.2707 89.1429 47.0015 89.1429ZM42.1057 11.5148L22.5615 18.8389C19.2323 20.0923 16.2948 24.3223 16.2948 27.9256V57.0263C16.2948 60.7471 18.919 65.9563 21.8565 68.1496L38.6982 80.7221C43.2024 84.0904 50.8007 84.0904 55.344 80.7221L72.1857 68.1496C75.1624 65.9171 77.7474 60.7471 77.7474 57.0263V27.8864C77.7474 24.3223 74.8099 20.0923 71.4807 18.7998L51.9365 11.4756C49.2732 10.5356 44.7299 10.5356 42.1057 11.5148Z" fill="#00FFC7"/>
<path d="M41.7525 55.7345C41.0083 55.7345 40.2641 55.4603 39.6766 54.8728L33.3709 48.567C32.2351 47.4312 32.2351 45.5512 33.3709 44.4153C34.5068 43.2795 36.3867 43.2795 37.5226 44.4153L41.7525 48.6453L56.5183 33.8796C57.6541 32.7438 59.5341 32.7438 60.67 33.8796C61.8058 35.0154 61.8058 36.8954 60.67 38.0313L43.8283 54.8728C43.2408 55.4603 42.4966 55.7345 41.7525 55.7345Z" fill="#00FFC7"/>
</svg>
