<svg width="66" height="66" viewBox="0 0 66 66" fill="none" xmlns="http://www.w3.org/2000/svg">
<path d="M33.0011 62.5897C30.0036 62.5897 27.0336 61.7097 24.6961 59.9772L12.8711 51.1497C9.73607 48.8122 7.28857 43.9172 7.28857 40.0397V19.5798C7.28857 15.3448 10.3961 10.8348 14.3836 9.34984L28.1061 4.20734C30.8286 3.18984 35.1186 3.18984 37.8411 4.20734L51.5636 9.34984C55.5511 10.8348 58.6586 15.3448 58.6586 19.5798V40.0122C58.6586 43.9172 56.2111 48.7847 53.0761 51.1222L41.2511 59.9497C38.9686 61.7097 35.9986 62.5897 33.0011 62.5897ZM29.5636 8.08484L15.8411 13.2273C13.5036 14.1073 11.4411 17.0773 11.4411 19.6073V40.0397C11.4411 42.6522 13.2836 46.3097 15.3461 47.8497L27.1711 56.6772C30.3336 59.0422 35.6686 59.0422 38.8586 56.6772L50.6836 47.8497C52.7736 46.2822 54.5886 42.6522 54.5886 40.0397V19.5798C54.5886 17.0773 52.5261 14.1073 50.1886 13.1998L36.4661 8.05734C34.5961 7.39734 31.4061 7.39734 29.5636 8.08484Z" fill="#00FFC7"/>
<path d="M29.3156 39.1328C28.7931 39.1328 28.2706 38.9403 27.8581 38.5278L23.4306 34.1003C22.6331 33.3028 22.6331 31.9828 23.4306 31.1853C24.2281 30.3878 25.5481 30.3878 26.3456 31.1853L29.3156 34.1553L39.6831 23.7878C40.4806 22.9903 41.8006 22.9903 42.5981 23.7878C43.3956 24.5853 43.3956 25.9053 42.5981 26.7028L30.7731 38.5278C30.3606 38.9403 29.8381 39.1328 29.3156 39.1328Z" fill="#00FFC7"/>
</svg>
