<svg width="22" height="22" viewBox="0 0 22 22" fill="none" xmlns="http://www.w3.org/2000/svg">
<g clip-path="url(#clip0_72_292)">
<path d="M19.269 7.11816C19.2824 7.30577 19.2824 7.49342 19.2824 7.68102C19.2824 13.4032 14.9271 19.9965 6.96685 19.9965C4.51445 19.9965 2.2363 19.2863 0.319946 18.0534C0.668385 18.0936 1.00338 18.107 1.36522 18.107C3.38874 18.107 5.25151 17.4236 6.73902 16.2577C4.83608 16.2175 3.24135 14.9712 2.6919 13.2558C2.95995 13.296 3.22795 13.3228 3.5094 13.3228C3.89801 13.3228 4.28667 13.2692 4.64847 13.1754C2.66513 12.7734 1.17758 11.0313 1.17758 8.92731V8.87372C1.7538 9.19535 2.4239 9.39636 3.1341 9.42313C1.96821 8.64586 1.20439 7.31918 1.20439 5.81825C1.20439 5.01421 1.41876 4.27715 1.79402 3.6339C3.92478 6.26049 7.12764 7.97579 10.7191 8.16344C10.6521 7.84181 10.6119 7.50682 10.6119 7.17179C10.6119 4.78638 12.5416 2.84326 14.9404 2.84326C16.1867 2.84326 17.3123 3.3659 18.103 4.21016C19.0813 4.02256 20.0193 3.66071 20.8502 3.16489C20.5286 4.16999 19.8451 5.01425 18.9473 5.55025C19.8184 5.45649 20.6626 5.21522 21.4399 4.88023C20.8503 5.73786 20.1132 6.50168 19.269 7.11816Z" fill="#00FFC7"/>
</g>
<defs>
<clipPath id="clip0_72_292">
<rect width="21.12" height="21.12" fill="white" transform="translate(0.319946 0.859863)"/>
</clipPath>
</defs>
</svg>
