<svg width="17" height="17" viewBox="0 0 17 17" fill="none" xmlns="http://www.w3.org/2000/svg">
<g clip-path="url(#clip0_72_37)">
<path d="M14.9631 4.82267H3.2266C2.95444 4.82267 2.73399 4.60223 2.73399 4.33006C2.73399 4.05789 2.95444 3.83745 3.2266 3.83745H15.0493C15.3214 3.83745 15.5419 3.617 15.5419 3.34484C15.5419 2.52864 14.8802 1.867 14.064 1.867H2.73399C1.64563 1.867 0.76355 2.74909 0.76355 3.83745V13.6897C0.76355 14.778 1.64563 15.6601 2.73399 15.6601H14.9631C15.8257 15.6601 16.5271 14.9972 16.5271 14.1823V6.3005C16.5271 5.48554 15.8257 4.82267 14.9631 4.82267ZM13.5714 11.2266C13.0274 11.2266 12.5862 10.7854 12.5862 10.2414C12.5862 9.69736 13.0274 9.25617 13.5714 9.25617C14.1155 9.25617 14.5567 9.69736 14.5567 10.2414C14.5567 10.7854 14.1155 11.2266 13.5714 11.2266Z" fill="black"/>
</g>
<defs>
<clipPath id="clip0_72_37">
<rect width="15.7635" height="15.7635" fill="white" transform="translate(0.76355 0.881775)"/>
</clipPath>
</defs>
</svg>
